<?xml version="1.0" encoding="UTF-8" standalone="no"?>
<!-- Created with Inkscape (http://www.inkscape.org/) -->

<svg
   xmlns:dc="http://purl.org/dc/elements/1.1/"
   xmlns:cc="http://creativecommons.org/ns#"
   xmlns:rdf="http://www.w3.org/1999/02/22-rdf-syntax-ns#"
   xmlns:svg="http://www.w3.org/2000/svg"
   xmlns="http://www.w3.org/2000/svg"
   xmlns:sodipodi="http://sodipodi.sourceforge.net/DTD/sodipodi-0.dtd"
   xmlns:inkscape="http://www.inkscape.org/namespaces/inkscape"
   width="210mm"
   height="297mm"
   viewBox="0 0 210 297"
   version="1.1"
   id="svg8"
   inkscape:version="0.92.4 (5da689c313, 2019-01-14)"
   sodipodi:docname="icon.svg">
  <defs
     id="defs2" />
  <sodipodi:namedview
     id="base"
     pagecolor="#ffffff"
     bordercolor="#666666"
     borderopacity="1.0"
     inkscape:pageopacity="0.0"
     inkscape:pageshadow="2"
     inkscape:zoom="1.979899"
     inkscape:cx="339.50958"
     inkscape:cy="575.02287"
     inkscape:document-units="mm"
     inkscape:current-layer="layer1"
     showgrid="false"
     inkscape:window-width="1920"
     inkscape:window-height="1017"
     inkscape:window-x="-8"
     inkscape:window-y="-8"
     inkscape:window-maximized="1" />
  <metadata
     id="metadata5">
    <rdf:RDF>
      <cc:Work
         rdf:about="">
        <dc:format>image/svg+xml</dc:format>
        <dc:type
           rdf:resource="http://purl.org/dc/dcmitype/StillImage" />
        <dc:title></dc:title>
      </cc:Work>
    </rdf:RDF>
  </metadata>
  <g
     inkscape:label="Layer 1"
     inkscape:groupmode="layer"
     id="layer1">
    <g
       id="g4520"
       transform="matrix(0.26458333,0,0,0.26458333,66.52381,142.63436)">
      <path
         id="path4518"
         d="m 238.159,100.323 h -2.911 c -0.097,-0.245 -0.237,-0.471 -0.445,-0.664 l -4.874,-4.465 c -0.165,-0.68 -0.708,-1.239 -1.444,-1.376 -0.022,-0.003 -0.047,-0.007 -0.072,-0.011 l -15.8,-14.463 c 6.549,0.891 10.667,1.662 10.688,1.659 0.906,0.169 1.805,-0.358 2.092,-1.229 0.284,-0.884 -0.125,-1.839 -0.952,-2.233 l -31.223,-14.963 -0.381,-0.137 c -8.022,-1.838 -22.453,-3.433 -30.303,-4.217 l 43.688,-27.042 c 0.654,-0.41 0.988,-1.184 0.834,-1.943 -0.158,-0.752 -0.776,-1.334 -1.538,-1.438 l -29.509,-4.274 -1.118,0.187 -20.734,10.85 20.562,-31.724 c 0.409,-0.632 0.396,-1.444 -0.036,-2.054 -0.428,-0.611 -1.187,-0.909 -1.916,-0.738 L 157.794,3.467 157.11,3.78 C 134.712,20.411 123.397,52.196 119.505,65.215 114.712,55.428 103.646,50.055 92.401,47.029 78.987,43.432 64.866,43.023 58.852,43.023 c -1.87,0 -2.95,0.038 -2.967,0.038 L 55.082,43.284 20.109,62.22 c -0.744,0.402 -1.118,1.25 -0.909,2.069 0.21,0.818 0.939,1.386 1.79,1.386 h 1.139 l -3.436,6.034 c -0.32,0.563 -0.32,1.257 0.009,1.824 0.32,0.564 0.917,0.905 1.563,0.919 2.958,0.051 5.817,0.123 8.604,0.213 L 4.23,97.432 c -0.023,0.021 -0.032,0.05 -0.056,0.075 H 1.84 c -1.014,0 -1.84,0.819 -1.84,1.84 0,1.013 0.826,1.834 1.84,1.834 h 103.906 l 2.28,2.278 c 0.058,0.058 0.136,0.086 0.2,0.133 0.071,0.054 0.137,0.097 0.216,0.144 0.27,0.153 0.561,0.258 0.873,0.262 0.004,0 0.007,0.003 0.011,0.003 0,0 0.002,0 0.004,0 h 128.829 c 1.014,0 1.841,-0.825 1.841,-1.838 0,-1.021 -0.827,-1.84 -1.841,-1.84 z m -46.372,-34.345 19.883,9.521 c -8.863,-1.16 -21.525,-2.417 -34.684,-2.417 -15.278,0.057 -31.46,1.648 -43.08,7.499 0.295,-0.323 0.579,-0.64 0.885,-0.963 7.102,-7.606 16.044,-15.774 22.428,-18.205 3.234,0.283 24.451,2.265 34.568,4.565 z m -15.721,-38.726 23.923,3.462 -43.927,27.196 c -9.773,3.8 -22.234,16.92 -29.904,25.794 3.249,-8.576 8.116,-17.792 12.831,-25.686 4.393,-7.369 8.58,-13.57 11.078,-17.156 z m -45.858,19.517 c 6.027,-13.713 15.466,-29.85 28.775,-39.796 l 10.182,-2.33 -21.917,33.808 c -0.007,0.015 0,0.031 -0.007,0.043 -5.298,7.578 -18.819,27.763 -25.181,45.699 l -0.504,-12.146 -0.014,-0.468 c 0.425,-1.724 3.105,-12.183 8.666,-24.81 z M 23.429,70.833 26.331,65.729 c 1.378,-0.032 2.751,-0.058 4.092,-0.058 30.856,0 53.09,7.301 67.604,14.563 1.576,0.786 3.018,1.569 4.412,2.345 C 88.147,77.057 63.979,71.701 23.429,70.833 Z m 9.881,4.74 c 0.219,-0.2 0.359,-0.452 0.456,-0.711 22.58,0.983 39.344,3.44 51.71,6.4 -5.746,-0.819 -12.339,-1.326 -19.927,-1.322 -11.432,0 -25.098,1.149 -41.316,4.02 z m 76.461,24.423 -1.959,-1.953 c -0.344,-0.342 -0.813,-0.536 -1.298,-0.536 H 9.569 l 9.706,-8.968 c 0.119,0 0.233,0.029 0.354,0.004 18.384,-3.567 33.526,-4.925 45.919,-4.925 20.321,0 33.25,3.649 41.037,7.22 3.897,1.777 6.513,3.541 8.146,4.842 0.897,0.711 1.437,1.235 1.764,1.576 z M 30.423,61.994 c -0.733,0 -1.489,0.021 -2.231,0.032 l 28.255,-15.3 c 0.457,-0.015 1.276,-0.031 2.406,-0.031 5.826,0 19.732,0.431 32.595,3.886 12.889,3.463 24.244,9.843 26.41,21.034 l 0.623,17.362 C 109.285,81.309 81.074,61.987 30.423,61.994 Z m 88.309,38.321 2.595,-1.056 c 0.107,-0.054 0.107,-0.061 0.272,-0.104 0.166,-0.044 0.425,-0.098 0.72,-0.098 0.244,0.025 0.524,0.054 0.833,0.154 0.101,0.194 0.23,0.382 0.403,0.535 0.266,0.24 0.589,0.363 0.92,0.42 0.043,0.051 0.082,0.094 0.126,0.147 h -5.869 z m 58.254,-23.556 c 10.704,0 21.084,0.854 29.308,1.796 l 8.733,7.991 c -17.13,-5.786 -31.751,-7.927 -43.972,-7.92 -24.753,-0.007 -39.586,8.75 -45.639,13.321 8.522,-11.618 30.332,-15.274 51.57,-15.188 z m 43.275,15.587 c -21.889,-3.749 -39.029,-5.132 -52.36,-5.132 -19.423,-0.004 -30.831,2.906 -37.232,5.578 6.891,-4.396 20.056,-10.488 40.388,-10.495 13.261,0 29.601,2.633 49.204,10.049 z m -91.362,7.973 c -0.334,-0.732 -0.708,-1.383 -1.125,-1.932 3.713,-2.403 14.571,-7.489 40.126,-7.492 14.463,0 33.642,1.645 58.801,6.339 l 3.375,3.089 z M 63.788,49.66 c -3.431,0 -7.004,0.219 -10.713,0.718 -1.008,0.137 -1.72,1.06 -1.583,2.074 0.137,0.999 1.067,1.709 2.075,1.573 3.535,-0.478 6.95,-0.689 10.221,-0.689 14.86,0 26.793,4.358 35.028,8.73 8.222,4.355 12.605,8.654 12.636,8.633 0.357,0.346 0.819,0.518 1.281,0.518 0.481,0 0.962,-0.187 1.324,-0.557 0.703,-0.732 0.682,-1.899 -0.047,-2.604 C 113.846,67.905 94.987,49.683 63.788,49.66 Z m 42.03,23.28 c -0.167,-0.164 -16.447,-16.6 -44.697,-16.614 -3.394,0 -6.959,0.227 -10.684,0.775 -1.009,0.147 -1.704,1.077 -1.553,2.084 0.144,1.005 1.083,1.701 2.09,1.559 C 54.511,60.22 57.896,60 61.121,60 c 13.387,0 23.927,3.904 31.127,7.809 7.201,3.907 10.927,7.743 10.957,7.712 0.357,0.365 0.829,0.545 1.301,0.545 0.468,0 0.935,-0.176 1.296,-0.532 0.721,-0.699 0.735,-1.867 0.023,-2.593 h -0.007 z M 98.534,91.067 H 27.533 c -1.016,0 -1.84,0.826 -1.84,1.84 0,1.012 0.824,1.838 1.84,1.838 h 71.001 c 1.016,0 1.841,-0.826 1.841,-1.838 0,-1.013 -0.825,-1.84 -1.841,-1.84 z m 110.028,4.448 h -71 c -1.017,0 -1.836,0.825 -1.836,1.842 0,1.01 0.819,1.835 1.836,1.835 h 71 c 1.017,0 1.844,-0.825 1.844,-1.835 -0.001,-1.017 -0.828,-1.842 -1.844,-1.842 z"
         inkscape:connector-curvature="0" />
    </g>
    <g
       id="g4579"
       transform="matrix(0.01039757,-0.03722281,0.03722281,0.01039757,69.170505,149.47906)"
       style="fill:#000000;stroke:#000000;stroke-opacity:1">
      <path
         id="path4548"
         d="m 580.562,219.439 c -12.721,-12.723 -29.637,-19.728 -47.623,-19.728 -17.987,0 -34.903,7.005 -47.625,19.728 -12.72,12.72 -19.725,29.634 -19.725,47.621 0,17.99 7.005,34.904 19.725,47.625 12.722,12.721 29.633,19.723 47.618,19.726 0.007,0 0.007,0 0.007,0 17.986,0 34.902,-7.005 47.623,-19.726 12.721,-12.723 19.726,-29.636 19.726,-47.625 -0.002,-17.987 -7.007,-34.9 -19.726,-47.621 z m -26.791,68.456 c -5.566,5.568 -12.96,8.636 -20.834,8.636 v 0 c -7.872,-0.002 -15.271,-3.068 -20.834,-8.636 -5.566,-5.562 -8.633,-12.96 -8.633,-20.834 0,-7.868 3.065,-15.269 8.633,-20.834 5.563,-5.565 12.967,-8.63 20.834,-8.63 7.868,0 15.268,3.063 20.834,8.63 11.492,11.488 11.492,30.18 0,41.668 z"
         inkscape:connector-curvature="0"
         style="fill:#000000;stroke:#000000;stroke-opacity:1" />
      <g
         id="g4552"
         style="fill:#000000;stroke:#000000;stroke-opacity:1"
         transform="matrix(0.73538393,0,0,0.73538393,51.880045,157.15306)">
        <path
           id="path4550"
           d="m 62.282,627.218 c -4.847,0 -9.693,-1.847 -13.392,-5.546 -7.398,-7.397 -7.398,-19.395 0,-26.79 L 158.42,485.35 c 7.398,-7.397 19.392,-7.397 26.79,0 7.398,7.397 7.398,19.395 0,26.792 L 75.676,621.672 c -3.698,3.699 -8.545,5.546 -13.394,5.546 z"
           inkscape:connector-curvature="0"
           style="fill:#000000;stroke:#000000;stroke-opacity:1" />
      </g>
      <g
         id="g4556"
         style="fill:#000000;stroke:#000000;stroke-opacity:1"
         transform="matrix(0.73538393,0,0,0.73538393,51.880045,157.15306)">
        <path
           id="path4554"
           d="m 86.774,732.172 c -4.85,0 -9.696,-1.85 -13.395,-5.549 -7.398,-7.397 -7.398,-19.389 0,-26.786 L 187.545,585.67 c 7.398,-7.398 19.392,-7.398 26.787,0 7.398,7.398 7.398,19.393 0,26.79 L 100.168,726.623 c -3.698,3.699 -8.548,5.549 -13.394,5.549 z"
           inkscape:connector-curvature="0"
           style="fill:#000000;stroke:#000000;stroke-opacity:1" />
      </g>
      <g
         id="g4560"
         style="fill:#000000;stroke:#000000;stroke-opacity:1"
         transform="matrix(0.73538393,0,0,0.73538393,51.880045,157.15306)">
        <path
           id="path4558"
           d="m 191.725,756.661 c -4.849,0 -9.696,-1.847 -13.395,-5.546 -7.398,-7.397 -7.398,-19.393 0,-26.789 L 287.863,614.79 c 7.396,-7.394 19.392,-7.396 26.787,0 7.398,7.397 7.398,19.395 0,26.793 L 205.12,751.115 c -3.699,3.698 -8.546,5.546 -13.395,5.546 z"
           inkscape:connector-curvature="0"
           style="fill:#000000;stroke:#000000;stroke-opacity:1" />
      </g>
      <path
         id="path4562"
         d="m 751.113,48.891 c -4.302,-4.3 -10.409,-6.278 -16.403,-5.311 -2.202,0.357 -54.705,8.98 -126.25,36.316 -41.974,16.034 -81.85,35.237 -118.529,57.076 -45.039,26.814 -85.356,57.721 -119.899,91.871 l -143.055,27.85 c -3.693,0.718 -7.086,2.524 -9.753,5.177 L 87.618,391.06 c -5.907,5.886 -7.267,14.938 -3.36,22.301 3.33,6.27 9.818,10.059 16.725,10.059 1.202,0 2.415,-0.114 3.628,-0.347 L 250.796,394.61 c -9.516,18.672 -18.419,38.055 -26.683,58.144 -2.904,7.072 -1.279,15.194 4.125,20.603 l 35.811,35.811 -33.27,33.27 c -7.398,7.398 -7.398,19.39 0,26.787 3.699,3.699 8.545,5.549 13.397,5.549 4.847,0 9.693,-1.85 13.392,-5.546 l 33.27,-33.271 35.811,35.813 c 3.625,3.619 8.469,5.548 13.4,5.548 2.423,0 4.871,-0.467 7.199,-1.426 20.091,-8.262 39.475,-17.165 58.141,-26.678 L 376.934,695.4 c -1.593,8.183 2.35,16.443 9.709,20.352 2.806,1.488 5.852,2.213 8.879,2.213 4.917,0 9.778,-1.918 13.417,-5.573 L 538.127,582.788 c 2.656,-2.663 4.459,-6.061 5.181,-9.753 L 571.153,429.98 c 34.148,-34.547 65.06,-74.859 91.876,-119.901 21.834,-36.683 41.04,-76.558 57.077,-118.529 27.33,-71.551 35.958,-124.048 36.313,-126.25 0.967,-6.008 -1.012,-12.112 -5.306,-16.409 z m -592.72,325.11 81.489,-81.224 87.674,-17.069 c -19.015,23.391 -36.655,48.634 -52.847,75.648 z m 348.826,186.12 -81.222,81.489 22.643,-116.316 c 27.021,-16.192 52.259,-33.83 75.648,-52.848 z m 177.14,-381.185 c -23.915,62.371 -68.01,152.302 -142.237,226.531 -34.171,34.168 -73.96,64.54 -118.89,90.838 -0.804,0.401 -1.585,0.854 -2.322,1.366 -24.049,13.943 -49.566,26.728 -76.476,38.302 l -26.806,-26.809 54.11,-54.106 c 7.395,-7.397 7.395,-19.392 0,-26.79 -7.398,-7.397 -19.392,-7.396 -26.79,0 l -54.109,54.106 -26.806,-26.809 c 11.578,-26.913 24.361,-52.433 38.308,-76.488 0.508,-0.732 0.951,-1.5 1.35,-2.295 26.298,-44.938 56.672,-84.732 90.849,-118.909 74.225,-74.225 164.156,-118.319 226.527,-142.235 37.897,-14.537 70.522,-23.601 92.09,-28.797 -5.198,21.571 -14.263,54.197 -28.798,92.095 z"
         inkscape:connector-curvature="0"
         style="fill:#000000;stroke:#000000;stroke-opacity:1;stroke-width:1.00911486;stroke-miterlimit:4;stroke-dasharray:none" />
    </g>
  </g>
</svg>
